/* XPM */
static char *_973fa2123bb41fc847570a07a6bfbd8TQRGD5ERwk1soJA9[] = {
/* columns rows colors chars-per-pixel */
"62 64 17 1 ",
"  c None",
". c black",
"X c #990000",
"o c #CC0000",
"O c red",
"+ c #BB7700",
"@ c #FF5544",
"# c #FF9900",
"$ c #FFBE31",
"% c #FFCC00",
"& c #FFEE00",
"* c #FFF56D",
"= c #FFD989",
"- c #FFFF88",
"; c #FFF7A3",
": c #FFFFBA",
"> c white",
/* pixels */
"..                                                            ",
".>.                                                           ",
".>>.                                                          ",
" .>$.                                                         ",
" .>$-.                                                        ",
" .>$--.                                                       ",
" .>-$--.                                                      ",
"  .>$--.....                                                  ",
"  .>-$.>>>--.                                                 ",
"  .>-$-.....                                                  ",
"   .>$----&.                                                  ",
"   .>-$---&&.                                                 ",
"    .>$----&.....                                             ",
"    .>-$---.>--&&.                                            ",
"     .>-$---.....                                             ",
"      .>-$----&&.                                             ",
"       .>-$--&&&&.                                            ",
"        .>-$&&&&&&.                                           ",
"         .>:=******.                                          ",
"          .>>>>>>>>>.                                         ",
"           .>>>>>>>>>.                                        ",
"            .>>>>>>>>>.                                       ",
"             .>>>>>>>>>.                                      ",
"              .>:=******.                                     ",
"               .>-$&&&&&&.                                    ",
"                .>-$&&&&&%.                                   ",
"                 .>-$$&&&&%.                                  ",
"                  .>>-$$&&&%.                                 ",
"                   ..>>-$$&&%.                                ",
"                     ..>>-$&&%.                               ",
"                       ..>-$&%%.                              ",
"                         .>>$&%%.                             ",
"                          ..>$%%#.        .                   ",
"                            .>$%%#.      .-.                  ",
"                             .>$%%#.    .--.                  ",
"                              .>$%%#.  .-@-.                  ",
"                               .>$%%#..-@&.                   ",
"                                .>$%##.-@&. ..                ",
"                                 .>$%##.-@&.&&.               ",
"                                  .;$%##.-@&o&.               ",
"                                  ..;###.-XOO&.               ",
"                                 .>>.;#.-@XXX&.               ",
"                                .>@@-..-OoOO&.                ",
"                               .>@--@--OoOX&.                 ",
"                              .>--..-OXOOXX&.      .....      ",
"                               ...  .&o@o&&@&.    .>>>--.     ",
"                                   .-OOo&..&X+.    .>--%.     ",
"                                   .--&&.  .+&+.   .+%%%.     ",
"                                    ....    .+&+...+%+##.     ",
"                                             .+&&&%%+..#.     ",
"                                              .>&%%#.  .      ",
"                                              .>&%%#.         ",
"                                           .  .>&&%#.         ",
"                                          .>..+&&&&%+.        ",
"                                          .>>+&+...%%+.       ",
"                                          .>-&+.   .+%+.      ",
"                                          .>&&&.    .%%+.     ",
"                                          .>&&##.    .+%+.    ",
"                                           .....      .##+. . ",
"                                                       .+#+.+.",
"                                                        .###+.",
"                                                         .##+.",
"                                                        .##++.",
"                                                         .... "
};
